<?xml version="1.0" encoding="UTF-8"?>
<svg width="26px" height="26px" viewBox="0 0 26 26" version="1.1" xmlns="http://www.w3.org/2000/svg" xmlns:xlink="http://www.w3.org/1999/xlink">
    <title>Group</title>
    <g id="Page-1" stroke="none" stroke-width="1" fill="none" fill-rule="evenodd">
        <g id="-" transform="translate(-1514.000000, -1210.000000)" fill-rule="nonzero">
            <g id="Group" transform="translate(1514.000000, 1210.000000)">
                <rect id="Rectangle" x="0" y="0" width="26" height="26"></rect>
                <path d="M14.321796,23.9865222 C14.296659,23.9781432 14.2757114,23.9571957 14.2757114,23.9362482 C14.2757114,23.9194902 14.1500263,23.6890674 13.9992041,23.4293181 C13.8483819,23.1653793 13.6682332,22.8469769 13.5970116,22.7212917 C13.52579,22.5956066 13.3665888,22.3107202 13.2409037,22.092866 C13.1152185,21.8750117 12.9937229,21.6571575 12.9685859,21.6110729 C12.9392593,21.5649884 12.4658453,20.7354664 11.9170201,19.7676907 C11.3640055,18.7999151 10.8780229,17.9410665 10.8319383,17.8614659 C10.7146322,17.6394222 10.555431,17.3671043 10.3962298,17.098976 C10.3166292,16.9691014 10.2537866,16.8517952 10.2537866,16.8392267 C10.2537866,16.8224687 10.1867545,16.7051626 10.107154,16.5794774 C10.0275534,16.4537923 9.96052128,16.3448651 9.96052128,16.3364861 C9.96052128,16.3281071 9.82645712,16.0851158 9.66306642,15.8002295 C9.49967573,15.5195326 9.3069585,15.1801827 9.23573691,15.0544976 C9.16870483,14.9288124 8.84611295,14.3632293 8.52352106,13.7976461 C7.68980957,12.3355088 7.68143056,12.3187508 7.62696699,12.2265817 C7.59764046,12.1804972 7.56412442,12.1176546 7.5473664,12.0841385 C7.53060838,12.0506225 7.41749174,11.8495263 7.2959961,11.6358615 C6.92731966,10.9864882 6.91056164,10.7812025 7.20382699,10.6303803 C7.32951214,10.5633482 7.5515559,10.5591587 9.60860286,10.5549692 L11.8793146,10.5549692 L11.8625565,10.4460421 C11.849988,10.3413045 11.6907868,9.23527514 11.6572708,9.00066286 C11.6195653,8.76186107 11.3011629,6.48695986 11.2802154,6.31937966 C11.2676468,6.22721055 11.2466993,6.1057149 11.2383203,6.04706183 C11.2299413,5.98840876 11.2089938,5.85853411 11.1964253,5.75379648 C11.1838567,5.64905886 11.1461512,5.38512004 11.1126352,5.16726578 C11.0791191,4.94941152 11.0414136,4.69385172 11.0288451,4.60168261 C11.0162765,4.5095135 10.995329,4.37963884 10.98695,4.30841726 C10.9408654,3.99420438 10.7984223,2.99291269 10.7774748,2.84209051 C10.7690957,2.7499214 10.7481482,2.62842575 10.7397692,2.57815169 C10.7272007,2.52368813 10.7062532,2.36867644 10.6894951,2.23880179 L10.6643581,2 L11.2718363,2 L11.8793146,2 L12.0259472,2.25555981 C12.1055478,2.39381347 12.222854,2.60328872 12.2856966,2.71640536 C12.3527286,2.8337115 12.4490872,2.99710219 12.5035508,3.08089229 C12.5538249,3.1688719 12.5999094,3.24847249 12.5999094,3.2568515 C12.5999094,3.26942002 12.654373,3.36996814 12.7214051,3.48308477 C12.7842476,3.5920119 12.8889853,3.77216062 12.9476383,3.88108775 C13.0104809,3.99001488 14.2338164,6.13923094 15.6708166,8.65293394 C17.1078168,11.1708264 18.3185838,13.290716 18.3562893,13.3577481 C18.3939948,13.4289696 18.4442689,13.5127597 18.4652164,13.5462758 C18.5783331,13.7180455 19.1104002,14.6732526 19.1606743,14.8031273 C19.2360853,14.9790865 19.2067588,15.1801827 19.0936422,15.2849204 C18.9218725,15.439932 18.7082077,15.4525006 16.4835806,15.4483111 C14.321796,15.4483111 14.321796,15.4483111 14.338554,15.5321012 C14.3511225,15.5823752 14.3762595,15.7709029 14.4013966,15.9552412 C14.4265336,16.1395794 14.4516706,16.3364861 14.4642392,16.3951392 C14.4726182,16.4537923 14.5103237,16.7261101 14.5480293,17.0026174 C14.6443879,17.7106438 14.6527669,17.7860548 14.6737144,17.903361 C14.6820934,17.9620141 14.7030409,18.0918887 14.7156095,18.1966263 C14.728178,18.301364 14.7575045,18.4898917 14.778452,18.6155768 C14.7993996,18.741262 14.8287261,18.9465477 14.8412946,19.0722329 C14.8580526,19.197918 14.8790001,19.3361717 14.8873792,19.3864458 C14.9083267,19.4953729 14.9376532,19.7216062 14.9669798,19.9352709 C14.9753588,20.02744 14.9963063,20.1782622 15.0130643,20.2704313 C15.0256328,20.3626004 15.0423908,20.4840961 15.0507699,20.5427491 C15.0759069,20.7228978 15.1261809,21.0580582 15.1722655,21.3722711 C15.184834,21.4351137 15.201592,21.5817464 15.2141605,21.694863 C15.2309186,21.8121691 15.2476766,21.9504228 15.2602451,22.0090759 C15.2853821,22.1557086 15.3021402,22.2604462 15.4278253,23.1528107 C15.4906679,23.5885193 15.5283734,23.9530062 15.5158049,23.9697642 C15.4864784,23.9990908 14.4013966,24.0116593 14.321796,23.9865222 Z" id="Path" fill="#5252E0" transform="translate(13.101215, 13.000000) scale(-1, 1) rotate(-180.000000) translate(-13.101215, -13.000000) "></path>
            </g>
        </g>
    </g>
</svg>