<?xml version="1.0" standalone="no"?>
<!DOCTYPE svg PUBLIC "-//W3C//DTD SVG 20010904//EN"
 "http://www.w3.org/TR/2001/REC-SVG-20010904/DTD/svg10.dtd">
<svg version="1.0" xmlns="http://www.w3.org/2000/svg"
 width="700.000000pt" height="700.000000pt" viewBox="0 0 700.000000 700.000000"
 preserveAspectRatio="xMidYMid meet">
<metadata>
Created by potrace 1.14, written by Peter Selinger 2001-2017
</metadata>
<g transform="translate(0.000000,700.000000) scale(0.100000,-0.100000)"
fill="#000000" stroke="none">
<path d="M3791 6122 c-6 -2 -11 -7 -11 -12 0 -4 -30 -59 -66 -121 -36 -63 -79
-139 -96 -169 -17 -30 -55 -98 -85 -150 -30 -52 -59 -104 -65 -115 -7 -11
-120 -209 -251 -440 -132 -231 -248 -436 -259 -455 -28 -53 -66 -118 -104
-182 -19 -31 -34 -59 -34 -62 0 -4 -16 -32 -35 -62 -19 -30 -35 -56 -35 -58 0
-2 -32 -60 -71 -128 -39 -67 -85 -148 -102 -178 -16 -30 -93 -165 -170 -300
-199 -349 -201 -353 -214 -375 -7 -11 -15 -26 -19 -34 -4 -8 -31 -56 -60 -107
-88 -155 -92 -204 -22 -240 30 -16 83 -17 574 -18 l542 0 -4 -26 c-3 -25 -41
-289 -49 -345 -9 -57 -85 -600 -90 -640 -3 -22 -8 -51 -10 -65 -2 -14 -7 -45
-10 -70 -3 -25 -12 -88 -20 -140 -8 -52 -17 -113 -20 -135 -3 -22 -8 -53 -10
-70 -11 -75 -45 -314 -50 -350 -2 -22 -7 -51 -9 -63 -3 -13 -8 -50 -12 -81
l-6 -57 145 0 145 0 35 61 c19 33 47 83 62 110 16 28 39 67 52 87 12 21 23 40
23 42 0 3 13 27 29 54 15 26 40 69 54 95 15 26 307 539 650 1139 343 601 632
1107 641 1123 9 17 21 37 26 45 27 41 154 269 166 300 18 42 11 90 -16 115
-41 37 -92 40 -623 39 -516 0 -516 0 -512 20 3 12 9 57 15 101 6 44 12 91 15
105 2 14 11 79 20 145 23 169 25 187 30 215 2 14 7 45 10 70 3 25 10 70 15
100 5 30 12 79 15 109 4 30 9 63 11 75 5 26 12 80 19 131 2 22 7 58 11 80 3
22 7 51 9 65 6 43 18 123 29 198 3 15 7 50 10 77 4 28 8 61 11 75 6 35 10 60
40 273 15 104 24 191 21 195 -7 7 -266 10 -285 4z"/>
</g>
</svg>
